<?xml version="1.0" encoding="UTF-8" standalone="no"?>
<!-- Created with Inkscape (http://www.inkscape.org/) -->

<svg
   xmlns:dc="http://purl.org/dc/elements/1.1/"
   xmlns:cc="http://creativecommons.org/ns#"
   xmlns:rdf="http://www.w3.org/1999/02/22-rdf-syntax-ns#"
   xmlns:svg="http://www.w3.org/2000/svg"
   xmlns="http://www.w3.org/2000/svg"
   xmlns:sodipodi="http://sodipodi.sourceforge.net/DTD/sodipodi-0.dtd"
   xmlns:inkscape="http://www.inkscape.org/namespaces/inkscape"
   width="300mm"
   height="300mm"
   viewBox="0 0 1062.9921 1062.9921"
   id="svg4195"
   version="1.1"
   inkscape:version="0.91 r13725"
   sodipodi:docname="drawing.svg"
   inkscape:export-filename="C:\Users\AbnerAdmin\Desktop\g4922.png"
   inkscape:export-xdpi="794"
   inkscape:export-ydpi="794">
  <defs
     id="defs4197" />
  <sodipodi:namedview
     id="base"
     pagecolor="#ffffff"
     bordercolor="#666666"
     borderopacity="1.0"
     inkscape:pageopacity="0.0"
     inkscape:pageshadow="2"
     inkscape:zoom="0.35"
     inkscape:cx="-152.14286"
     inkscape:cy="520"
     inkscape:document-units="px"
     inkscape:current-layer="layer1"
     showgrid="false"
     inkscape:window-width="1360"
     inkscape:window-height="705"
     inkscape:window-x="-8"
     inkscape:window-y="-8"
     inkscape:window-maximized="1"
     inkscape:snap-others="false" />
  <metadata
     id="metadata4200">
    <rdf:RDF>
      <cc:Work
         rdf:about="">
        <dc:format>image/svg+xml</dc:format>
        <dc:type
           rdf:resource="http://purl.org/dc/dcmitype/StillImage" />
        <dc:title></dc:title>
      </cc:Work>
    </rdf:RDF>
  </metadata>
  <g
     inkscape:label="Camada 1"
     inkscape:groupmode="layer"
     id="layer1"
     transform="translate(0,10.629921)">
    <rect
       style="opacity:1;fill:#6f918a;fill-opacity:1;stroke:none;stroke-width:13.41499996;stroke-miterlimit:10;stroke-dasharray:none;stroke-opacity:1"
       id="rect4743"
       width="1062.8572"
       height="1059.9999"
       x="2.8571401"
       y="-7.6378517"
       ry="102.21675" />
    <g
       id="g4784"
       transform="matrix(3.6338884,0,0,3.6338884,-123.15615,-235.68147)">
      <g
         id="XMLID_782_">
        <g
           inkscape:export-ydpi="794"
           inkscape:export-xdpi="794"
           transform="matrix(0.49698645,0,0,0.45674999,93.83913,193.6694)"
           id="XMLID_785_">
          <path
             inkscape:connector-curvature="0"
             d="m 260.946,358.028 -163.864,0 c -27.584,0 -49.946,-22.361 -49.946,-49.946 l 0,-262.295 263.756,0 0,262.295 c 0,27.584 -22.362,49.946 -49.946,49.946 z"
             style="fill:#ffffff"
             id="XMLID_784_" />
        </g>
        <g
           inkscape:export-ydpi="794"
           inkscape:export-xdpi="794"
           transform="matrix(0.49698645,0,0,0.45674999,93.83913,193.6694)"
           id="XMLID_786_">
          <path
             inkscape:connector-curvature="0"
             d="m 243.699,257.277 -66.123,0 -0.239,46.849 52.363,0 c 8.76,0 16.851,-4.686 21.21,-12.285 l 6.471,-11.279 -0.439,-0.25 -13.243,-23.035 z"
             style="fill:#000000"
             id="XMLID_787_" />
          <path
             inkscape:connector-curvature="0"
             d="m 147.44,199.949 -40.5,-23.551 -26.124,45.445 c -4.35,7.566 -4.337,16.877 0.034,24.432 l 6.366,11.003 27.277,0 32.947,-57.329 z"
             style="fill:#000000"
             id="XMLID_790_" />
          <path
             inkscape:connector-curvature="0"
             d="m 179.09,144.886 c 0.004,0 32.817,57.089 32.817,57.089 l 40.742,-23.143 -26.101,-45.406 c -4.362,-7.588 -12.447,-12.266 -21.2,-12.266 l -12.878,0 0,0.449 -13.38,23.277 z"
             style="fill:#000000"
             id="XMLID_793_" />
          <path
             inkscape:connector-curvature="0"
             d="m 162.696,244.53 -0.242,0 c -2.846,0 -5.153,2.307 -5.153,5.153 l 0,7.593 -70.081,0 20.044,34.642 c 4.371,7.555 12.437,12.207 21.165,12.207 l 28.871,0 0,7.589 c 0,2.846 2.307,5.153 5.153,5.153 l 0.006,0 c 1.367,0 2.678,-0.543 3.644,-1.509 l 31.134,-31.134 c 2.013,-2.013 2.012,-5.276 -0.001,-7.289 l -19.665,-19.66 -11.231,-11.236 c -0.966,-0.965 -2.277,-1.509 -3.644,-1.509 z"
             style="fill:#6f918a"
             id="XMLID_796_" />
          <path
             inkscape:connector-curvature="0"
             d="m 165.908,193.4 0.118,-0.206 c 1.418,-2.468 0.567,-5.618 -1.901,-7.036 l -6.584,-3.783 21.548,-37.488 13.38,-23.279 0,-0.447 -39.864,0 c -8.813,0 -16.944,4.742 -21.283,12.413 l -14.396,25.45 -6.582,-3.782 c -2.467,-1.418 -5.616,-0.567 -7.035,1.899 l -0.003,0.005 c -0.682,1.185 -0.864,2.592 -0.508,3.912 l 4.142,15.339 7.332,27.165 c 0.742,2.748 3.57,4.374 6.318,3.632 l 42.192,-11.388 c 1.32,-0.355 2.445,-1.221 3.126,-2.406 z"
             style="fill:#6f918a"
             id="XMLID_799_" />
          <path
             inkscape:connector-curvature="0"
             d="m 262.629,196.204 6.585,-3.785 c 2.468,-1.419 3.318,-4.571 1.898,-7.038 l 0,0 c -0.681,-1.184 -1.805,-2.049 -3.123,-2.405 l -42.513,-11.48 c -2.748,-0.742 -5.577,0.884 -6.319,3.632 l -11.388,42.185 c -0.356,1.319 -0.174,2.726 0.507,3.911 l 0.12,0.208 c 1.418,2.467 4.568,3.318 7.035,1.9 l 6.581,-3.781 21.686,37.726 13.242,23.035 0.439,0.25 19.856,-34.616 c 4.326,-7.542 4.322,-16.815 -0.012,-24.353 l -14.594,-25.389 z"
             style="fill:#6f918a"
             id="XMLID_802_" />
        </g>
        <g
           inkscape:export-ydpi="794"
           inkscape:export-xdpi="794"
           transform="matrix(0.49698645,0,0,0.45674999,93.83913,193.6694)"
           id="XMLID_808_">
          <path
             inkscape:connector-curvature="0"
             d="m 327.334,63.177 0,0 c 0,-16.065 -13.023,-29.088 -29.088,-29.088 l -238.464,0 c -16.065,0 -29.088,13.023 -29.088,29.088 l 0,0 c 0,16.065 13.023,29.088 29.088,29.088 l 238.465,0 c 16.064,0 29.087,-13.023 29.087,-29.088 z"
             style="fill:#ffffff"
             id="XMLID_807_" />
        </g>
      </g>
      <g
         id="g17" />
      <g
         id="g19" />
      <g
         id="g21" />
      <g
         id="g23" />
      <g
         id="g25" />
      <g
         id="g27" />
      <g
         id="g29" />
      <g
         id="g31" />
      <g
         id="g33" />
      <g
         id="g35" />
      <g
         id="g37" />
      <g
         id="g39" />
      <g
         id="g41" />
      <g
         id="g43" />
      <g
         id="g45" />
    </g>
    <g
       id="g4922"
       transform="matrix(11.554003,0,0,11.554003,245.17485,-96.753798)"
       style="fill:#ffffff">
      <g
         id="g4880"
         style="fill:#ffffff">
        <path
           id="path4882"
           d="m 16.049,31.137 -12.048,0 20.08,19.971 20.08,-19.971 -12.048,0 c 0,0 -4.292,-17.735 16.064,-29.849 0,0 -15.536,-3.02 -26.794,10.51 -10e-4,-10e-4 -5.732,6.129 -5.334,19.339 z"
           style="fill:#ffffff"
           inkscape:connector-curvature="0" />
        <path
           id="path4884"
           d="M 24.081,52.519 1.577,30.137 l 13.453,0 C 14.938,17.378 20.413,11.37 20.652,11.115 28.691,1.45 38.933,0 44.318,0 c 2.446,0 3.985,0.294 4.049,0.307 l 2.574,0.5 -2.253,1.341 C 31.371,12.453 32.394,26.663 32.94,30.137 l 13.645,0 -22.504,22.382 z M 6.425,32.137 24.081,49.699 41.737,32.137 l -10.411,0 -0.185,-0.765 C 31.098,31.195 27.26,14.29 45.182,2.014 40.398,1.864 30.162,2.809 22.151,12.437 c -0.091,0.1 -5.481,6.089 -5.103,18.67 l 0.03,1.03 -10.653,0 z"
           style="fill:#ffffff"
           inkscape:connector-curvature="0" />
      </g>
      <g
         id="g4886"
         style="fill:#ffffff" />
      <g
         id="g4888"
         style="fill:#ffffff" />
      <g
         id="g4890"
         style="fill:#ffffff" />
      <g
         id="g4892"
         style="fill:#ffffff" />
      <g
         id="g4894"
         style="fill:#ffffff" />
      <g
         id="g4896"
         style="fill:#ffffff" />
      <g
         id="g4898"
         style="fill:#ffffff" />
      <g
         id="g4900"
         style="fill:#ffffff" />
      <g
         id="g4902"
         style="fill:#ffffff" />
      <g
         id="g4904"
         style="fill:#ffffff" />
      <g
         id="g4906"
         style="fill:#ffffff" />
      <g
         id="g4908"
         style="fill:#ffffff" />
      <g
         id="g4910"
         style="fill:#ffffff" />
      <g
         id="g4912"
         style="fill:#ffffff" />
      <g
         id="g4914"
         style="fill:#ffffff" />
    </g>
  </g>
</svg>
