<?xml version="1.0" encoding="UTF-8" standalone="no"?>
<!-- Generator: Adobe Illustrator 19.0.0, SVG Export Plug-In . SVG Version: 6.00 Build 0)  -->

<svg
   xmlns:dc="http://purl.org/dc/elements/1.1/"
   xmlns:cc="http://creativecommons.org/ns#"
   xmlns:rdf="http://www.w3.org/1999/02/22-rdf-syntax-ns#"
   xmlns:svg="http://www.w3.org/2000/svg"
   xmlns="http://www.w3.org/2000/svg"
   xmlns:sodipodi="http://sodipodi.sourceforge.net/DTD/sodipodi-0.dtd"
   xmlns:inkscape="http://www.inkscape.org/namespaces/inkscape"
   version="1.1"
   id="Layer_1"
   x="0px"
   y="0px"
   viewBox="0 0 496.158 496.158"
   style="enable-background:new 0 0 496.158 496.158;"
   xml:space="preserve"
   inkscape:version="0.91 r13725"
   sodipodi:docname="list.svg"><metadata
     id="metadata53"><rdf:RDF><cc:Work
         rdf:about=""><dc:format>image/svg+xml</dc:format><dc:type
           rdf:resource="http://purl.org/dc/dcmitype/StillImage" /></cc:Work></rdf:RDF></metadata><defs
     id="defs51" /><sodipodi:namedview
     pagecolor="#ffffff"
     bordercolor="#666666"
     borderopacity="1"
     objecttolerance="10"
     gridtolerance="10"
     guidetolerance="10"
     inkscape:pageopacity="0"
     inkscape:pageshadow="2"
     inkscape:window-width="1360"
     inkscape:window-height="705"
     id="namedview49"
     showgrid="false"
     inkscape:zoom="0.47565494"
     inkscape:cx="248.07899"
     inkscape:cy="248.07899"
     inkscape:window-x="-8"
     inkscape:window-y="-8"
     inkscape:window-maximized="1"
     inkscape:current-layer="Layer_1" /><path
     style="fill:#0000ff"
     d="M496.158,248.085c0-137.021-111.07-248.082-248.076-248.082C111.07,0.003,0,111.063,0,248.085  c0,137.002,111.07,248.07,248.083,248.07C385.088,496.155,496.158,385.087,496.158,248.085z"
     id="path3"
     inkscape:export-filename="D:\Abner\workspace\Lua + Corona SDK\ColetaChallenge\img\menuComponents\list.png"
     inkscape:export-xdpi="90"
     inkscape:export-ydpi="90" /><g
     id="g5"><path
       style="fill:#FFFFFF;"
       d="M392.579,226.079h-225.5c-5.523,0-10,4.479-10,10v24c0,5.523,4.477,10,10,10h225.5   c5.523,0,10-4.477,10-10v-24C402.579,230.558,398.102,226.079,392.579,226.079z"
       id="path7" /><path
       style="fill:#FFFFFF;"
       d="M127.579,226.079h-24c-5.523,0-10,4.479-10,10v24c0,5.523,4.477,10,10,10h24c5.523,0,10-4.477,10-10   v-24C137.579,230.558,133.102,226.079,127.579,226.079z"
       id="path9" /><path
       style="fill:#FFFFFF;"
       d="M392.579,157.079h-225.5c-5.523,0-10,4.479-10,10v24c0,5.523,4.477,10,10,10h225.5   c5.523,0,10-4.477,10-10v-24C402.579,161.558,398.102,157.079,392.579,157.079z"
       id="path11" /><path
       style="fill:#FFFFFF;"
       d="M127.579,157.079h-24c-5.523,0-10,4.479-10,10v24c0,5.523,4.477,10,10,10h24c5.523,0,10-4.477,10-10   v-24C137.579,161.558,133.102,157.079,127.579,157.079z"
       id="path13" /><path
       style="fill:#FFFFFF;"
       d="M392.579,295.079h-225.5c-5.523,0-10,4.479-10,10v24c0,5.523,4.477,10,10,10h225.5   c5.523,0,10-4.477,10-10v-24C402.579,299.558,398.102,295.079,392.579,295.079z"
       id="path15" /><path
       style="fill:#FFFFFF;"
       d="M127.579,295.079h-24c-5.523,0-10,4.479-10,10v24c0,5.523,4.477,10,10,10h24c5.523,0,10-4.477,10-10   v-24C137.579,299.558,133.102,295.079,127.579,295.079z"
       id="path17" /></g><g
     id="g19" /><g
     id="g21" /><g
     id="g23" /><g
     id="g25" /><g
     id="g27" /><g
     id="g29" /><g
     id="g31" /><g
     id="g33" /><g
     id="g35" /><g
     id="g37" /><g
     id="g39" /><g
     id="g41" /><g
     id="g43" /><g
     id="g45" /><g
     id="g47" /></svg>