<?xml version="1.0" encoding="UTF-8" standalone="no"?>
<!-- Generator: Adobe Illustrator 18.0.0, SVG Export Plug-In . SVG Version: 6.00 Build 0)  -->

<svg
   xmlns:dc="http://purl.org/dc/elements/1.1/"
   xmlns:cc="http://creativecommons.org/ns#"
   xmlns:rdf="http://www.w3.org/1999/02/22-rdf-syntax-ns#"
   xmlns:svg="http://www.w3.org/2000/svg"
   xmlns="http://www.w3.org/2000/svg"
   xmlns:xlink="http://www.w3.org/1999/xlink"
   xmlns:sodipodi="http://sodipodi.sourceforge.net/DTD/sodipodi-0.dtd"
   xmlns:inkscape="http://www.inkscape.org/namespaces/inkscape"
   version="1.1"
   id="Capa_1"
   x="0px"
   y="0px"
   viewBox="0 0 58 58"
   style="enable-background:new 0 0 58 58;"
   xml:space="preserve"
   inkscape:version="0.91 r13725"
   sodipodi:docname="oval-color.svg"
   inkscape:export-filename="D:\Abner\workspace\Lua + Corona SDK\ColetaChallenge\img\buttons\oval-bl.png"
   inkscape:export-xdpi="90"
   inkscape:export-ydpi="90"><metadata
     id="metadata41"><rdf:RDF><cc:Work
         rdf:about=""><dc:format>image/svg+xml</dc:format><dc:type
           rdf:resource="http://purl.org/dc/dcmitype/StillImage" /></cc:Work></rdf:RDF></metadata><defs
     id="defs39"><linearGradient
       inkscape:collect="always"
       id="linearGradient4227"><stop
         style="stop-color:#000000;stop-opacity:1;"
         offset="0"
         id="stop4229" /><stop
         style="stop-color:#000000;stop-opacity:0;"
         offset="1"
         id="stop4231" /></linearGradient><radialGradient
       inkscape:collect="always"
       xlink:href="#linearGradient4227"
       id="radialGradient4235"
       cx="29"
       cy="29"
       fx="29"
       fy="29"
       r="29"
       gradientUnits="userSpaceOnUse" /></defs><sodipodi:namedview
     pagecolor="#ffffff"
     bordercolor="#666666"
     borderopacity="1"
     objecttolerance="10"
     gridtolerance="10"
     guidetolerance="10"
     inkscape:pageopacity="0"
     inkscape:pageshadow="2"
     inkscape:window-width="1360"
     inkscape:window-height="705"
     id="namedview37"
     showgrid="false"
     inkscape:zoom="3.99"
     inkscape:cx="29"
     inkscape:cy="6.3552387"
     inkscape:window-x="-8"
     inkscape:window-y="-8"
     inkscape:window-maximized="1"
     inkscape:current-layer="Capa_1" /><g
     id="g3"
     style="fill:url(#radialGradient4235);fill-opacity:1"
     inkscape:export-filename="D:\Abner\workspace\Lua + Corona SDK\ColetaChallenge\img\buttons\oval-bl-pressed.png"
     inkscape:export-xdpi="90"
     inkscape:export-ydpi="90"><circle
       style="fill:url(#radialGradient4235);fill-opacity:1"
       cx="29"
       cy="29"
       r="29"
       id="circle5" /></g><g
     id="g7" /><g
     id="g9" /><g
     id="g11" /><g
     id="g13" /><g
     id="g15" /><g
     id="g17" /><g
     id="g19" /><g
     id="g21" /><g
     id="g23" /><g
     id="g25" /><g
     id="g27" /><g
     id="g29" /><g
     id="g31" /><g
     id="g33" /><g
     id="g35" /><g
     id="g4195"
     transform="matrix(0.10969098,0,0,0.10969098,9.7374222,9.9387602)"><g
       id="XMLID_232_"><path
         d="m 285.744,240.544 -113.129,0 -0.409,80.153 95.235,0 c 11.494,0 22.11,-6.149 27.83,-16.119 l 13.881,-24.196 -0.752,-0.427 -22.656,-39.411 z"
         style="fill:#cccccc"
         id="XMLID_235_"
         inkscape:connector-curvature="0" /><path
         d="M 121.057,142.463 51.766,102.169 4.268,184.795 c -5.707,9.928 -5.69,22.145 0.044,32.057 l 13.707,23.693 46.668,0 56.37,-98.082 z"
         style="fill:#cccccc"
         id="XMLID_238_"
         inkscape:connector-curvature="0" /><path
         d="m 175.206,48.257 c 0.007,0 56.147,97.672 56.147,97.672 L 301.058,106.334 253.591,23.758 C 247.868,13.801 237.259,7.663 225.775,7.663 l -27.677,0 0,0.769 -22.892,39.825 z"
         style="fill:#cccccc"
         id="XMLID_241_"
         inkscape:connector-curvature="0" /><path
         d="m 147.157,218.737 -0.414,0 c -4.869,0 -8.817,3.947 -8.817,8.817 l 0,12.991 -119.899,0 39.661,68.548 c 4.156,7.183 11.825,11.606 20.123,11.606 l 60.116,0 0,12.984 c 0,4.869 3.947,8.817 8.817,8.817 l 0.01,0 c 2.338,0 4.581,-0.929 6.234,-2.582 l 53.266,-53.266 c 3.444,-3.444 3.443,-9.027 -0.001,-12.47 l -33.645,-33.636 -19.214,-19.224 c -1.654,-1.656 -3.898,-2.585 -6.237,-2.585 z"
         style="fill:#ffffff"
         id="XMLID_244_"
         inkscape:connector-curvature="0" /><path
         d="m 152.652,131.258 0.203,-0.353 c 2.427,-4.222 0.971,-9.612 -3.252,-12.038 l -11.264,-6.472 36.866,-64.138 22.891,-39.828 0,-0.766 -73.89,0 c -11.564,0 -22.233,6.223 -27.926,16.288 L 68.85,72.443 57.589,65.973 C 53.368,63.548 47.98,65.002 45.553,69.222 l -0.005,0.009 c -1.166,2.028 -1.479,4.435 -0.869,6.694 l 7.086,26.244 12.545,46.476 c 1.269,4.701 6.109,7.484 10.81,6.215 l 72.185,-19.483 c 2.259,-0.61 4.182,-2.091 5.347,-4.119 z"
         style="fill:#ffffff"
         id="XMLID_308_"
         inkscape:connector-curvature="0" /><path
         d="m 318.131,136.056 11.266,-6.476 c 4.223,-2.428 5.678,-7.82 3.248,-12.042 l 0,0 c -1.166,-2.025 -3.087,-3.505 -5.343,-4.114 L 254.568,93.783 c -4.701,-1.27 -9.542,1.513 -10.811,6.214 l -19.483,72.174 c -0.609,2.257 -0.297,4.665 0.868,6.692 l 0.205,0.356 c 2.426,4.221 7.815,5.676 12.037,3.251 l 11.258,-6.47 37.102,64.544 22.655,39.411 0.752,0.427 36.757,-64.08 c 5.677,-9.897 5.671,-22.063 -0.015,-31.955 l -27.762,-48.291 z"
         style="fill:#ffffff"
         id="XMLID_312_"
         inkscape:connector-curvature="0" /></g><g
       id="g10" /><g
       id="g12" /><g
       id="g14" /><g
       id="g16" /><g
       id="g18" /><g
       id="g20" /><g
       id="g22" /><g
       id="g24" /><g
       id="g26" /><g
       id="g28" /><g
       id="g30" /><g
       id="g32" /><g
       id="g34" /><g
       id="g36" /><g
       id="g38" /></g></svg>