<?xml version="1.0" encoding="UTF-8" standalone="no"?>
<!-- Generated by IcoMoon.io -->

<svg
   xmlns:dc="http://purl.org/dc/elements/1.1/"
   xmlns:cc="http://creativecommons.org/ns#"
   xmlns:rdf="http://www.w3.org/1999/02/22-rdf-syntax-ns#"
   xmlns:svg="http://www.w3.org/2000/svg"
   xmlns="http://www.w3.org/2000/svg"
   xmlns:sodipodi="http://sodipodi.sourceforge.net/DTD/sodipodi-0.dtd"
   xmlns:inkscape="http://www.inkscape.org/namespaces/inkscape"
   version="1.1"
   width="512px"
   height="512px"
   viewBox="0 0 16 16"
   id="svg2"
   inkscape:version="0.91 r13725"
   sodipodi:docname="question-circular-button.svg"
   inkscape:export-filename="C:\Users\RavDellV2\Downloads\question-circular-button.png"
   inkscape:export-xdpi="90"
   inkscape:export-ydpi="90">
  <metadata
     id="metadata10">
    <rdf:RDF>
      <cc:Work
         rdf:about="">
        <dc:format>image/svg+xml</dc:format>
        <dc:type
           rdf:resource="http://purl.org/dc/dcmitype/StillImage" />
      </cc:Work>
    </rdf:RDF>
  </metadata>
  <defs
     id="defs8" />
  <sodipodi:namedview
     pagecolor="#ffffff"
     bordercolor="#666666"
     borderopacity="1"
     objecttolerance="10"
     gridtolerance="10"
     guidetolerance="10"
     inkscape:pageopacity="0"
     inkscape:pageshadow="2"
     inkscape:window-width="760"
     inkscape:window-height="480"
     id="namedview6"
     showgrid="false"
     inkscape:zoom="0.4609375"
     inkscape:cx="256"
     inkscape:cy="256"
     inkscape:window-x="0"
     inkscape:window-y="0"
     inkscape:window-maximized="0"
     inkscape:current-layer="svg2" />
  <path
     d="M 8,0 C 3.6,0 0,3.6 0,8 c 0,4.4 3.6,8 8,8 4.4,0 8,-3.6 8,-8 C 16,3.6 12.4,0 8,0 Z m 0.6945965,11.847458 -1.5435476,0 0,-1.543548 1.5435476,0 z M 10.315321,8.0657661 C 10.006612,8.3744755 9.6979024,8.5288303 9.3891928,8.6060077 8.9261285,8.9147171 8.7717739,8.7603625 8.7717739,9.5321362 l -1.5435477,0 c 0,-1.5435475 0.9261286,-2.0066118 1.5435477,-2.3153214 C 9.0033059,7.1396374 9.1576607,7.0624602 9.3120155,6.9081054 9.3891928,6.830928 9.5435476,6.6765732 9.3891928,6.3678637 9.2348381,5.9819769 8.7717739,5.5960899 8.0771774,5.5960899 c -1.0804832,0 -1.234838,0.9261286 -1.3120154,1.1576607 L 5.2216144,6.5222185 C 5.2987918,5.6732673 5.9933883,4.0525424 8,4.0525424 c 1.2348381,0 2.315321,0.6945964 2.778385,1.6979023 0.30871,0.8489511 0.154356,1.6979023 -0.463064,2.3153214 z"
     id="path4"
     inkscape:connector-curvature="0"
     style="fill:#006df0"
     sodipodi:nodetypes="ssssscccccsccccscsccscs" />
</svg>
