<?xml version="1.0" encoding="UTF-8" standalone="no"?>
<!-- Generator: Adobe Illustrator 19.0.0, SVG Export Plug-In . SVG Version: 6.00 Build 0)  -->

<svg
   xmlns:dc="http://purl.org/dc/elements/1.1/"
   xmlns:cc="http://creativecommons.org/ns#"
   xmlns:rdf="http://www.w3.org/1999/02/22-rdf-syntax-ns#"
   xmlns:svg="http://www.w3.org/2000/svg"
   xmlns="http://www.w3.org/2000/svg"
   xmlns:sodipodi="http://sodipodi.sourceforge.net/DTD/sodipodi-0.dtd"
   xmlns:inkscape="http://www.inkscape.org/namespaces/inkscape"
   version="1.1"
   id="Layer_1"
   x="0px"
   y="0px"
   viewBox="0 0 358.028 358.028"
   style="enable-background:new 0 0 358.028 358.028;"
   xml:space="preserve"
   inkscape:version="0.91 r13725"
   sodipodi:docname="recycle_red.svg"
   inkscape:export-filename="D:\Abner\workspace\Lua + Corona SDK\ColetaChallenge\img\screenComponents\recycle_red.png"
   inkscape:export-xdpi="90"
   inkscape:export-ydpi="90"><metadata
     id="metadata51"><rdf:RDF><cc:Work
         rdf:about=""><dc:format>image/svg+xml</dc:format><dc:type
           rdf:resource="http://purl.org/dc/dcmitype/StillImage" /><dc:title></dc:title></cc:Work></rdf:RDF></metadata><defs
     id="defs49" /><sodipodi:namedview
     pagecolor="#ffffff"
     bordercolor="#666666"
     borderopacity="1"
     objecttolerance="10"
     gridtolerance="10"
     guidetolerance="10"
     inkscape:pageopacity="0"
     inkscape:pageshadow="2"
     inkscape:window-width="730"
     inkscape:window-height="696"
     id="namedview47"
     showgrid="false"
     inkscape:zoom="0.50373353"
     inkscape:cx="196.83969"
     inkscape:cy="118.33129"
     inkscape:window-x="621"
     inkscape:window-y="0"
     inkscape:window-maximized="0"
     inkscape:current-layer="XMLID_782_" /><g
     id="XMLID_782_"><g
       id="XMLID_785_"
       transform="matrix(1.1955163,0,0,1.098347,-34.825465,-35.210976)"
       style="fill:#6c5353"><path
         id="XMLID_784_"
         style="fill:#800000"
         d="m 260.946,358.028 -163.864,0 c -27.584,0 -49.946,-22.361 -49.946,-49.946 l 0,-262.295 263.756,0 0,262.295 c 0,27.584 -22.362,49.946 -49.946,49.946 z"
         inkscape:connector-curvature="0" /></g><g
       id="XMLID_786_"
       transform="matrix(1.1955163,0,0,1.098347,-34.825465,-35.210976)"><path
         id="XMLID_787_"
         style="fill:#ffffff"
         d="m 243.699,257.277 -66.123,0 -0.239,46.849 52.363,0 c 8.76,0 16.851,-4.686 21.21,-12.285 l 6.471,-11.279 -0.439,-0.25 -13.243,-23.035 z"
         inkscape:connector-curvature="0" /><path
         id="XMLID_790_"
         style="fill:#ffffff"
         d="m 147.44,199.949 -40.5,-23.551 -26.124,45.445 c -4.35,7.566 -4.337,16.877 0.034,24.432 l 6.366,11.003 27.277,0 32.947,-57.329 z"
         inkscape:connector-curvature="0" /><path
         id="XMLID_793_"
         style="fill:#ffffff"
         d="m 179.09,144.886 c 0.004,0 32.817,57.089 32.817,57.089 l 40.742,-23.143 -26.101,-45.406 c -4.362,-7.588 -12.447,-12.266 -21.2,-12.266 l -12.878,0 0,0.449 -13.38,23.277 z"
         inkscape:connector-curvature="0" /><path
         id="XMLID_796_"
         style="fill:#e9afaf"
         d="m 162.696,244.53 -0.242,0 c -2.846,0 -5.153,2.307 -5.153,5.153 l 0,7.593 -70.081,0 20.044,34.642 c 4.371,7.555 12.437,12.207 21.165,12.207 l 28.871,0 0,7.589 c 0,2.846 2.307,5.153 5.153,5.153 l 0.006,0 c 1.367,0 2.678,-0.543 3.644,-1.509 l 31.134,-31.134 c 2.013,-2.013 2.012,-5.276 -0.001,-7.289 l -19.665,-19.66 -11.231,-11.236 c -0.966,-0.965 -2.277,-1.509 -3.644,-1.509 z"
         inkscape:connector-curvature="0" /><path
         id="XMLID_799_"
         style="fill:#e9afaf"
         d="m 165.908,193.4 0.118,-0.206 c 1.418,-2.468 0.567,-5.618 -1.901,-7.036 l -6.584,-3.783 21.548,-37.488 13.38,-23.279 0,-0.447 -39.864,0 c -8.813,0 -16.944,4.742 -21.283,12.413 l -14.396,25.45 -6.582,-3.782 c -2.467,-1.418 -5.616,-0.567 -7.035,1.899 l -0.003,0.005 c -0.682,1.185 -0.864,2.592 -0.508,3.912 l 4.142,15.339 7.332,27.165 c 0.742,2.748 3.57,4.374 6.318,3.632 l 42.192,-11.388 c 1.32,-0.355 2.445,-1.221 3.126,-2.406 z"
         inkscape:connector-curvature="0" /><path
         id="XMLID_802_"
         style="fill:#e9afaf"
         d="m 262.629,196.204 6.585,-3.785 c 2.468,-1.419 3.318,-4.571 1.898,-7.038 l 0,0 c -0.681,-1.184 -1.805,-2.049 -3.123,-2.405 l -42.513,-11.48 c -2.748,-0.742 -5.577,0.884 -6.319,3.632 l -11.388,42.185 c -0.356,1.319 -0.174,2.726 0.507,3.911 l 0.12,0.208 c 1.418,2.467 4.568,3.318 7.035,1.9 l 6.581,-3.781 21.686,37.726 13.242,23.035 0.439,0.25 19.856,-34.616 c 4.326,-7.542 4.322,-16.815 -0.012,-24.353 l -14.594,-25.389 z"
         inkscape:connector-curvature="0" /></g><g
       id="XMLID_808_"
       transform="matrix(1.1955163,0,0,1.098347,-34.825465,-35.210976)"
       style="fill:#ffeeaa"><path
         id="XMLID_807_"
         style="fill:#e9afaf;fill-opacity:1"
         d="m 327.334,63.177 0,0 c 0,-16.065 -13.023,-29.088 -29.088,-29.088 l -238.464,0 c -16.065,0 -29.088,13.023 -29.088,29.088 l 0,0 c 0,16.065 13.023,29.088 29.088,29.088 l 238.465,0 c 16.064,0 29.087,-13.023 29.087,-29.088 z"
         inkscape:connector-curvature="0" /></g></g><g
     id="g17" /><g
     id="g19" /><g
     id="g21" /><g
     id="g23" /><g
     id="g25" /><g
     id="g27" /><g
     id="g29" /><g
     id="g31" /><g
     id="g33" /><g
     id="g35" /><g
     id="g37" /><g
     id="g39" /><g
     id="g41" /><g
     id="g43" /><g
     id="g45" /></svg>