<?xml version="1.0" encoding="UTF-8" standalone="no"?>
<!-- Generator: Adobe Illustrator 19.0.0, SVG Export Plug-In . SVG Version: 6.00 Build 0)  -->

<svg
   xmlns:dc="http://purl.org/dc/elements/1.1/"
   xmlns:cc="http://creativecommons.org/ns#"
   xmlns:rdf="http://www.w3.org/1999/02/22-rdf-syntax-ns#"
   xmlns:svg="http://www.w3.org/2000/svg"
   xmlns="http://www.w3.org/2000/svg"
   xmlns:sodipodi="http://sodipodi.sourceforge.net/DTD/sodipodi-0.dtd"
   xmlns:inkscape="http://www.inkscape.org/namespaces/inkscape"
   version="1.1"
   id="Layer_1"
   x="0px"
   y="0px"
   viewBox="0 0 350.162 350.162"
   style="enable-background:new 0 0 350.162 350.162;"
   xml:space="preserve"
   inkscape:version="0.91 r13725"
   sodipodi:docname="recycling.svg"><metadata
     id="metadata44"><rdf:RDF><cc:Work
         rdf:about=""><dc:format>image/svg+xml</dc:format><dc:type
           rdf:resource="http://purl.org/dc/dcmitype/StillImage" /></cc:Work></rdf:RDF></metadata><defs
     id="defs42" /><sodipodi:namedview
     pagecolor="#ffffff"
     bordercolor="#666666"
     borderopacity="1"
     objecttolerance="10"
     gridtolerance="10"
     guidetolerance="10"
     inkscape:pageopacity="0"
     inkscape:pageshadow="2"
     inkscape:window-width="760"
     inkscape:window-height="480"
     id="namedview40"
     showgrid="false"
     inkscape:zoom="0.67397379"
     inkscape:cx="175.08099"
     inkscape:cy="175.08099"
     inkscape:window-x="0"
     inkscape:window-y="0"
     inkscape:window-maximized="0"
     inkscape:current-layer="XMLID_232_" /><g
     id="XMLID_232_"><path
       id="XMLID_235_"
       style="fill:#cccccc"
       d="M285.744,240.544H172.615l-0.409,80.153h95.235c11.494,0,22.11-6.149,27.83-16.119   l13.881-24.196l-0.752-0.427L285.744,240.544z" /><path
       id="XMLID_238_"
       style="fill:#cccccc"
       d="M121.057,142.463l-69.291-40.294L4.268,184.795   c-5.707,9.928-5.69,22.145,0.044,32.057l13.707,23.693h46.668L121.057,142.463z" /><path
       id="XMLID_241_"
       style="fill:#cccccc"
       d="M175.206,48.257c0.007,0,56.147,97.672,56.147,97.672l69.705-39.595l-47.467-82.576   c-5.723-9.957-16.332-16.095-27.816-16.095h-27.677v0.769L175.206,48.257z" /><path
       id="XMLID_244_"
       style="fill:#ffffff"
       d="M147.157,218.737h-0.414c-4.869,0-8.817,3.947-8.817,8.817v12.991H18.027   l39.661,68.548c4.156,7.183,11.825,11.606,20.123,11.606h60.116v12.984c0,4.869,3.947,8.817,8.817,8.817h0.01   c2.338,0,4.581-0.929,6.234-2.582l53.266-53.266c3.444-3.444,3.443-9.027-0.001-12.47l-33.645-33.636l-19.214-19.224   C151.74,219.666,149.496,218.737,147.157,218.737z" /><path
       id="XMLID_308_"
       style="fill:#ffffff"
       d="M152.652,131.258l0.203-0.353c2.427-4.222,0.971-9.612-3.252-12.038l-11.264-6.472   l36.866-64.138l22.891-39.828V7.663h-73.89c-11.564,0-22.233,6.223-27.926,16.288L68.85,72.443l-11.261-6.47   c-4.221-2.425-9.609-0.971-12.036,3.249l-0.005,0.009c-1.166,2.028-1.479,4.435-0.869,6.694l7.086,26.244l12.545,46.476   c1.269,4.701,6.109,7.484,10.81,6.215l72.185-19.483C149.564,134.767,151.487,133.286,152.652,131.258z" /><path
       id="XMLID_312_"
       style="fill:#ffffff"
       d="M318.131,136.056l11.266-6.476c4.223-2.428,5.678-7.82,3.248-12.042l0,0   c-1.166-2.025-3.087-3.505-5.343-4.114l-72.734-19.641c-4.701-1.27-9.542,1.513-10.811,6.214l-19.483,72.174   c-0.609,2.257-0.297,4.665,0.868,6.692l0.205,0.356c2.426,4.221,7.815,5.676,12.037,3.251l11.258-6.47l37.102,64.544l22.655,39.411   l0.752,0.427l36.757-64.08c5.677-9.897,5.671-22.063-0.015-31.955L318.131,136.056z" /></g><g
     id="g10" /><g
     id="g12" /><g
     id="g14" /><g
     id="g16" /><g
     id="g18" /><g
     id="g20" /><g
     id="g22" /><g
     id="g24" /><g
     id="g26" /><g
     id="g28" /><g
     id="g30" /><g
     id="g32" /><g
     id="g34" /><g
     id="g36" /><g
     id="g38" /></svg>