<?xml version="1.0" encoding="UTF-8" standalone="no"?>
<!-- Created with Inkscape (http://www.inkscape.org/) -->

<svg
   xmlns:dc="http://purl.org/dc/elements/1.1/"
   xmlns:cc="http://creativecommons.org/ns#"
   xmlns:rdf="http://www.w3.org/1999/02/22-rdf-syntax-ns#"
   xmlns:svg="http://www.w3.org/2000/svg"
   xmlns="http://www.w3.org/2000/svg"
   xmlns:sodipodi="http://sodipodi.sourceforge.net/DTD/sodipodi-0.dtd"
   xmlns:inkscape="http://www.inkscape.org/namespaces/inkscape"
   width="210mm"
   height="297mm"
   viewBox="0 0 744.09448819 1052.3622047"
   id="svg2"
   version="1.1"
   inkscape:version="0.91 r13725"
   sodipodi:docname="sprit-fish.svg"
   inkscape:export-filename="C:\Users\AbnerAdmin\Pictures\fish-sprit\sprit3.png"
   inkscape:export-xdpi="90"
   inkscape:export-ydpi="90">
  <defs
     id="defs4">
    <clipPath
       clipPathUnits="userSpaceOnUse"
       id="clipPath1658">
      <path
         d="M 0,800 800,800 800,0 0,0 0,800 Z"
         id="path1660"
         inkscape:connector-curvature="0" />
    </clipPath>
    <clipPath
       clipPathUnits="userSpaceOnUse"
       id="clipPath776">
      <path
         d="M 0,0 800,0 800,800 0,800 0,0 Z"
         id="path778"
         inkscape:connector-curvature="0" />
    </clipPath>
    <linearGradient
       x1="0"
       y1="0"
       x2="1"
       y2="0"
       gradientUnits="userSpaceOnUse"
       gradientTransform="matrix(-2623.2769,3.0309973e-7,3.0309973e-7,2623.2769,4932.2694,-262.67369)"
       spreadMethod="pad"
       id="linearGradient762">
      <stop
         style="stop-opacity:1;stop-color:#d6b776"
         offset="0"
         id="stop764" />
      <stop
         style="stop-opacity:1;stop-color:#5f775c"
         offset="0.78650978"
         id="stop766" />
      <stop
         style="stop-opacity:1;stop-color:#5f775c"
         offset="1"
         id="stop768" />
    </linearGradient>
    <clipPath
       clipPathUnits="userSpaceOnUse"
       id="clipPath678">
      <path
         d="M 0,0 800,0 800,800 0,800 0,0 Z"
         id="path680"
         inkscape:connector-curvature="0" />
    </clipPath>
    <linearGradient
       x1="0"
       y1="0"
       x2="1"
       y2="0"
       gradientUnits="userSpaceOnUse"
       gradientTransform="matrix(636.19618,-1063.3799,-1063.3799,-636.19618,3701.7808,223.95226)"
       spreadMethod="pad"
       id="linearGradient664">
      <stop
         style="stop-opacity:1;stop-color:#d6b776"
         offset="0"
         id="stop666" />
      <stop
         style="stop-opacity:1;stop-color:#5f775c"
         offset="0.78650978"
         id="stop668" />
      <stop
         style="stop-opacity:1;stop-color:#5f775c"
         offset="1"
         id="stop670" />
    </linearGradient>
    <clipPath
       clipPathUnits="userSpaceOnUse"
       id="clipPath512">
      <path
         d="M 0,0 800,0 800,800 0,800 0,0 Z"
         id="path514"
         inkscape:connector-curvature="0" />
    </clipPath>
    <linearGradient
       x1="0"
       y1="0"
       x2="1"
       y2="0"
       gradientUnits="userSpaceOnUse"
       gradientTransform="matrix(-354.03997,-591.79001,-591.79001,354.03997,3882.128,117.33638)"
       spreadMethod="pad"
       id="linearGradient498">
      <stop
         style="stop-opacity:1;stop-color:#d6b776"
         offset="0"
         id="stop500" />
      <stop
         style="stop-opacity:1;stop-color:#5f775c"
         offset="0.78650978"
         id="stop502" />
      <stop
         style="stop-opacity:1;stop-color:#5f775c"
         offset="1"
         id="stop504" />
    </linearGradient>
    <clipPath
       clipPathUnits="userSpaceOnUse"
       id="clipPath474">
      <path
         d="M 0,0 800,0 800,800 0,800 0,0 Z"
         id="path476"
         inkscape:connector-curvature="0" />
    </clipPath>
    <linearGradient
       x1="0"
       y1="0"
       x2="1"
       y2="0"
       gradientUnits="userSpaceOnUse"
       gradientTransform="matrix(319.75694,-307.06667,-307.06667,-319.75694,3925.5713,176.12155)"
       spreadMethod="pad"
       id="linearGradient460">
      <stop
         style="stop-opacity:1;stop-color:#d6b776"
         offset="0"
         id="stop462" />
      <stop
         style="stop-opacity:1;stop-color:#5f775c"
         offset="0.78650978"
         id="stop464" />
      <stop
         style="stop-opacity:1;stop-color:#5f775c"
         offset="1"
         id="stop466" />
    </linearGradient>
    <clipPath
       clipPathUnits="userSpaceOnUse"
       id="clipPath440">
      <path
         d="M 0,0 800,0 800,800 0,800 0,0 Z"
         id="path442"
         inkscape:connector-curvature="0" />
    </clipPath>
    <linearGradient
       x1="0"
       y1="0"
       x2="1"
       y2="0"
       gradientUnits="userSpaceOnUse"
       gradientTransform="matrix(761.95981,580.18154,580.18154,-761.95981,3563.4647,36.411998)"
       spreadMethod="pad"
       id="linearGradient426">
      <stop
         style="stop-opacity:1;stop-color:#d6b776"
         offset="0"
         id="stop428" />
      <stop
         style="stop-opacity:1;stop-color:#5f775c"
         offset="0.78650978"
         id="stop430" />
      <stop
         style="stop-opacity:1;stop-color:#5f775c"
         offset="1"
         id="stop432" />
    </linearGradient>
    <clipPath
       clipPathUnits="userSpaceOnUse"
       id="clipPath1020">
      <path
         d="M 0,0 800,0 800,800 0,800 0,0 Z"
         id="path1022"
         inkscape:connector-curvature="0" />
    </clipPath>
    <clipPath
       clipPathUnits="userSpaceOnUse"
       id="clipPath1252">
      <path
         d="m 563.5,589.991 168.481,0 0,-124.936 -168.481,0 0,124.936 z"
         id="path1254"
         inkscape:connector-curvature="0" />
    </clipPath>
    <clipPath
       clipPathUnits="userSpaceOnUse"
       id="clipPath1288">
      <path
         d="m 548.014,716.492 13.137,0 0,-12.196 -13.137,0 0,12.196 z"
         id="path1290"
         inkscape:connector-curvature="0" />
    </clipPath>
    <clipPath
       clipPathUnits="userSpaceOnUse"
       id="clipPath1304">
      <path
         d="m 589.734,675.608 19.693,0 0,-17.423 -19.693,0 0,17.423 z"
         id="path1306"
         inkscape:connector-curvature="0" />
    </clipPath>
    <clipPath
       clipPathUnits="userSpaceOnUse"
       id="clipPath1320">
      <path
         d="m 579.044,631.432 14.075,0 0,-13.067 -14.075,0 0,13.067 z"
         id="path1322"
         inkscape:connector-curvature="0" />
    </clipPath>
    <clipPath
       clipPathUnits="userSpaceOnUse"
       id="clipPath1336">
      <path
         d="m 637.541,545.936 14.075,0 0,-13.067 -14.075,0 0,13.067 z"
         id="path1338"
         inkscape:connector-curvature="0" />
    </clipPath>
    <clipPath
       clipPathUnits="userSpaceOnUse"
       id="clipPath1352">
      <path
         d="m 703.728,536.115 19.693,0 0,-17.423 -19.693,0 0,17.423 z"
         id="path1354"
         inkscape:connector-curvature="0" />
    </clipPath>
    <clipPath
       clipPathUnits="userSpaceOnUse"
       id="clipPath1368">
      <path
         d="m 224.592,387.38 15.014,0 0,-13.939 -15.014,0 0,13.939 z"
         id="path1370"
         inkscape:connector-curvature="0" />
    </clipPath>
    <clipPath
       clipPathUnits="userSpaceOnUse"
       id="clipPath1384">
      <path
         d="m 201.769,290.998 21.662,0 0,-19.165 -21.662,0 0,19.165 z"
         id="path1386"
         inkscape:connector-curvature="0" />
    </clipPath>
    <clipPath
       clipPathUnits="userSpaceOnUse"
       id="clipPath1400">
      <path
         d="m 132.303,129.249 25.6,0 0,-22.65 -25.6,0 0,22.65 z"
         id="path1402"
         inkscape:connector-curvature="0" />
    </clipPath>
    <clipPath
       clipPathUnits="userSpaceOnUse"
       id="clipPath1416">
      <path
         d="m 127.566,155.956 14.075,0 0,-13.068 -14.075,0 0,13.068 z"
         id="path1418"
         inkscape:connector-curvature="0" />
    </clipPath>
    <clipPath
       clipPathUnits="userSpaceOnUse"
       id="clipPath1432">
      <path
         d="m 164.763,182.568 20.677,0 0,-18.294 -20.677,0 0,18.294 z"
         id="path1434"
         inkscape:connector-curvature="0" />
    </clipPath>
    <clipPath
       clipPathUnits="userSpaceOnUse"
       id="clipPath1448">
      <path
         d="m 134.504,221.081 12.199,0 0,-11.325 -12.199,0 0,11.325 z"
         id="path1450"
         inkscape:connector-curvature="0" />
    </clipPath>
    <clipPath
       clipPathUnits="userSpaceOnUse"
       id="clipPath1464">
      <path
         d="m 49.7612,315.626 19.6926,0 0,-17.423 -19.6926,0 0,17.423 z"
         id="path1466"
         inkscape:connector-curvature="0" />
    </clipPath>
    <clipPath
       clipPathUnits="userSpaceOnUse"
       id="clipPath1480">
      <path
         d="m 337.179,241.694 17.828,0 0,-16.552 -17.828,0 0,16.552 z"
         id="path1482"
         inkscape:connector-curvature="0" />
    </clipPath>
    <clipPath
       clipPathUnits="userSpaceOnUse"
       id="clipPath1496">
      <path
         d="m 526.268,363.866 23.631,0 0,-20.908 -23.631,0 0,20.908 z"
         id="path1498"
         inkscape:connector-curvature="0" />
    </clipPath>
    <clipPath
       clipPathUnits="userSpaceOnUse"
       id="clipPath1512">
      <path
         d="m 513.776,173.811 24.616,0 0,-21.779 -24.616,0 0,21.779 z"
         id="path1514"
         inkscape:connector-curvature="0" />
    </clipPath>
    <clipPath
       clipPathUnits="userSpaceOnUse"
       id="clipPath1528">
      <path
         d="m 744.788,317.611 27.569,0 0,-24.393 -27.569,0 0,24.393 z"
         id="path1530"
         inkscape:connector-curvature="0" />
    </clipPath>
    <clipPath
       clipPathUnits="userSpaceOnUse"
       id="clipPath1544">
      <path
         d="m 732.811,414.912 30.524,0 0,-27.005 -30.524,0 0,27.005 z"
         id="path1546"
         inkscape:connector-curvature="0" />
    </clipPath>
    <clipPath
       clipPathUnits="userSpaceOnUse"
       id="clipPath1560">
      <path
         d="m 81.3286,658.529 28.5544,0 0,-25.263 -28.5544,0 0,25.263 z"
         id="path1562"
         inkscape:connector-curvature="0" />
    </clipPath>
    <clipPath
       clipPathUnits="userSpaceOnUse"
       id="clipPath1576">
      <path
         d="m 44.0396,713.492 13.1367,0 0,-12.196 -13.1367,0 0,12.196 z"
         id="path1578"
         inkscape:connector-curvature="0" />
    </clipPath>
    <clipPath
       clipPathUnits="userSpaceOnUse"
       id="clipPath1592">
      <path
         d="m 78.0687,739.427 14.075,0 0,-13.068 -14.075,0 0,13.068 z"
         id="path1594"
         inkscape:connector-curvature="0" />
    </clipPath>
    <clipPath
       clipPathUnits="userSpaceOnUse"
       id="clipPath1608">
      <path
         d="m 151.188,775.667 17.829,0 0,-16.552 -17.829,0 0,16.552 z"
         id="path1610"
         inkscape:connector-curvature="0" />
    </clipPath>
    <clipPath
       clipPathUnits="userSpaceOnUse"
       id="clipPath1624">
      <path
         d="m 649.163,760.668 17.829,0 0,-16.552 -17.829,0 0,16.552 z"
         id="path1626"
         inkscape:connector-curvature="0" />
    </clipPath>
    <clipPath
       clipPathUnits="userSpaceOnUse"
       id="clipPath1640">
      <path
         d="m 726.598,728.298 15.952,0 0,-14.809 -15.952,0 0,14.809 z"
         id="path1642"
         inkscape:connector-curvature="0" />
    </clipPath>
    <clipPath
       clipPathUnits="userSpaceOnUse"
       id="clipPath776-5">
      <path
         d="M 0,0 800,0 800,800 0,800 0,0 Z"
         id="path778-2"
         inkscape:connector-curvature="0" />
    </clipPath>
    <linearGradient
       x1="0"
       y1="0"
       x2="1"
       y2="0"
       gradientUnits="userSpaceOnUse"
       gradientTransform="matrix(-2393.5906,2.7656122e-7,2.7656122e-7,2393.5906,4539.9076,-240.44892)"
       spreadMethod="pad"
       id="linearGradient762-5">
      <stop
         style="stop-opacity:1;stop-color:#d6b776"
         offset="0"
         id="stop764-0" />
      <stop
         style="stop-opacity:1;stop-color:#5f775c"
         offset="0.78650978"
         id="stop766-1" />
      <stop
         style="stop-opacity:1;stop-color:#5f775c"
         offset="1"
         id="stop768-3" />
    </linearGradient>
    <clipPath
       clipPathUnits="userSpaceOnUse"
       id="clipPath678-9">
      <path
         d="M 0,0 800,0 800,800 0,800 0,0 Z"
         id="path680-4"
         inkscape:connector-curvature="0" />
    </clipPath>
    <linearGradient
       x1="0"
       y1="0"
       x2="1"
       y2="0"
       gradientUnits="userSpaceOnUse"
       gradientTransform="matrix(580.49274,-970.27354,-970.27354,-580.49274,3417.1569,203.56951)"
       spreadMethod="pad"
       id="linearGradient664-7">
      <stop
         style="stop-opacity:1;stop-color:#d6b776"
         offset="0"
         id="stop666-7" />
      <stop
         style="stop-opacity:1;stop-color:#5f775c"
         offset="0.78650978"
         id="stop668-4" />
      <stop
         style="stop-opacity:1;stop-color:#5f775c"
         offset="1"
         id="stop670-1" />
    </linearGradient>
    <clipPath
       clipPathUnits="userSpaceOnUse"
       id="clipPath512-7">
      <path
         d="M 0,0 800,0 800,800 0,800 0,0 Z"
         id="path514-4"
         inkscape:connector-curvature="0" />
    </clipPath>
    <linearGradient
       x1="0"
       y1="0"
       x2="1"
       y2="0"
       gradientUnits="userSpaceOnUse"
       gradientTransform="matrix(-323.04129,-539.97464,-539.97464,323.04129,3581.7134,106.28861)"
       spreadMethod="pad"
       id="linearGradient498-5">
      <stop
         style="stop-opacity:1;stop-color:#d6b776"
         offset="0"
         id="stop500-5" />
      <stop
         style="stop-opacity:1;stop-color:#5f775c"
         offset="0.78650978"
         id="stop502-9" />
      <stop
         style="stop-opacity:1;stop-color:#5f775c"
         offset="1"
         id="stop504-2" />
    </linearGradient>
    <clipPath
       clipPathUnits="userSpaceOnUse"
       id="clipPath474-9">
      <path
         d="M 0,0 800,0 800,800 0,800 0,0 Z"
         id="path476-4"
         inkscape:connector-curvature="0" />
    </clipPath>
    <linearGradient
       x1="0"
       y1="0"
       x2="1"
       y2="0"
       gradientUnits="userSpaceOnUse"
       gradientTransform="matrix(291.75997,-280.18083,-280.18083,-291.75997,3621.3526,159.92671)"
       spreadMethod="pad"
       id="linearGradient460-2">
      <stop
         style="stop-opacity:1;stop-color:#d6b776"
         offset="0"
         id="stop462-9" />
      <stop
         style="stop-opacity:1;stop-color:#5f775c"
         offset="0.78650978"
         id="stop464-3" />
      <stop
         style="stop-opacity:1;stop-color:#5f775c"
         offset="1"
         id="stop466-3" />
    </linearGradient>
    <clipPath
       clipPathUnits="userSpaceOnUse"
       id="clipPath440-4">
      <path
         d="M 0,0 800,0 800,800 0,800 0,0 Z"
         id="path442-9"
         inkscape:connector-curvature="0" />
    </clipPath>
    <linearGradient
       x1="0"
       y1="0"
       x2="1"
       y2="0"
       gradientUnits="userSpaceOnUse"
       gradientTransform="matrix(695.24488,529.38257,529.38257,-695.24488,3290.9513,32.44972)"
       spreadMethod="pad"
       id="linearGradient426-7">
      <stop
         style="stop-opacity:1;stop-color:#d6b776"
         offset="0"
         id="stop428-9" />
      <stop
         style="stop-opacity:1;stop-color:#5f775c"
         offset="0.78650978"
         id="stop430-2" />
      <stop
         style="stop-opacity:1;stop-color:#5f775c"
         offset="1"
         id="stop432-4" />
    </linearGradient>
    <clipPath
       clipPathUnits="userSpaceOnUse"
       id="clipPath368">
      <path
         d="M 294.881,800 537.778,572.685 559.88,574.695 326.463,800 l -31.582,0 z"
         id="path370"
         inkscape:connector-curvature="0" />
    </clipPath>
    <mask
       maskUnits="userSpaceOnUse"
       x="0"
       y="0"
       width="1"
       height="1"
       id="mask388">
      <g
         id="g390">
        <g
           id="g392">
          <g
             id="g394">
            <g
               id="g396">
              <path
                 d="m -32768,32767 65535,0 0,-65535 -65535,0 0,65535 z"
                 style="fill:url(#linearGradient380);stroke:none"
                 id="path398"
                 inkscape:connector-curvature="0" />
            </g>
          </g>
        </g>
      </g>
    </mask>
    <linearGradient
       x1="0"
       y1="0"
       x2="1"
       y2="0"
       gradientUnits="userSpaceOnUse"
       gradientTransform="matrix(445.2738,-426.46875,-426.46875,-445.2738,75.419037,1025.1628)"
       spreadMethod="pad"
       id="linearGradient380">
      <stop
         style="stop-opacity:1;stop-color:#ffffff"
         offset="0"
         id="stop382" />
      <stop
         style="stop-opacity:0;stop-color:#ffffff"
         offset="0.78650978"
         id="stop384" />
      <stop
         style="stop-opacity:0;stop-color:#ffffff"
         offset="1"
         id="stop386" />
    </linearGradient>
    <linearGradient
       x1="0"
       y1="0"
       x2="1"
       y2="0"
       gradientUnits="userSpaceOnUse"
       gradientTransform="matrix(522.27997,-519.96441,-500.22275,-542.89214,1471.5412,1318.6908)"
       spreadMethod="pad"
       id="linearGradient404">
      <stop
         style="stop-opacity:1;stop-color:#ffffff"
         offset="0"
         id="stop406" />
      <stop
         style="stop-opacity:1;stop-color:#ffffff"
         offset="0.78650978"
         id="stop408" />
      <stop
         style="stop-opacity:1;stop-color:#ffffff"
         offset="1"
         id="stop410" />
    </linearGradient>
    <clipPath
       clipPathUnits="userSpaceOnUse"
       id="clipPath318">
      <path
         d="M 211.383,800 480.514,548.574 502.616,560.63 259.673,800 l -48.29,0 z"
         id="path320"
         inkscape:connector-curvature="0" />
    </clipPath>
    <mask
       maskUnits="userSpaceOnUse"
       x="0"
       y="0"
       width="1"
       height="1"
       id="mask338">
      <g
         id="g340">
        <g
           id="g342">
          <g
             id="g344">
            <g
               id="g346">
              <path
                 d="m -32768,32767 65535,0 0,-65535 -65535,0 0,65535 z"
                 style="fill:url(#linearGradient330);stroke:none"
                 id="path348"
                 inkscape:connector-curvature="0" />
            </g>
          </g>
        </g>
      </g>
    </mask>
    <linearGradient
       x1="0"
       y1="0"
       x2="1"
       y2="0"
       gradientUnits="userSpaceOnUse"
       gradientTransform="matrix(539.01056,-487.15247,-487.15247,-539.01056,-74.781242,1077.5967)"
       spreadMethod="pad"
       id="linearGradient330">
      <stop
         style="stop-opacity:1;stop-color:#ffffff"
         offset="0"
         id="stop332" />
      <stop
         style="stop-opacity:0;stop-color:#ffffff"
         offset="0.78650978"
         id="stop334" />
      <stop
         style="stop-opacity:0;stop-color:#ffffff"
         offset="1"
         id="stop336" />
    </linearGradient>
    <linearGradient
       x1="0"
       y1="0"
       x2="1"
       y2="0"
       gradientUnits="userSpaceOnUse"
       gradientTransform="matrix(680.84207,-693.66874,-615.33839,-767.51085,1320.8094,1506.9004)"
       spreadMethod="pad"
       id="linearGradient354">
      <stop
         style="stop-opacity:1;stop-color:#ffffff"
         offset="0"
         id="stop356" />
      <stop
         style="stop-opacity:1;stop-color:#ffffff"
         offset="0.78650978"
         id="stop358" />
      <stop
         style="stop-opacity:1;stop-color:#ffffff"
         offset="1"
         id="stop360" />
    </linearGradient>
    <clipPath
       clipPathUnits="userSpaceOnUse"
       id="clipPath42">
      <path
         d="M 0,0 800,0 800,800 0,800 0,0 Z"
         id="path44"
         inkscape:connector-curvature="0" />
    </clipPath>
    <clipPath
       clipPathUnits="userSpaceOnUse"
       id="clipPath50">
      <path
         d="m 489.678,450.594 27.162,0 0,-71.1 -27.162,0 0,71.1 z"
         id="path52"
         inkscape:connector-curvature="0" />
    </clipPath>
    <clipPath
       clipPathUnits="userSpaceOnUse"
       id="clipPath126">
      <path
         d="m 204.083,510.417 90.5,0 0,-147.75 -90.5,0 0,147.75 z"
         id="path128"
         inkscape:connector-curvature="0" />
    </clipPath>
    <clipPath
       clipPathUnits="userSpaceOnUse"
       id="clipPath142">
      <path
         d="m 325.417,430.323 67.166,0 0,-109.656 -67.166,0 0,109.656 z"
         id="path144"
         inkscape:connector-curvature="0" />
    </clipPath>
    <clipPath
       clipPathUnits="userSpaceOnUse"
       id="clipPath158">
      <path
         d="m 430.143,502.736 46.19,0 0,-150.403 -46.19,0 0,150.403 z"
         id="path160"
         inkscape:connector-curvature="0" />
    </clipPath>
    <clipPath
       clipPathUnits="userSpaceOnUse"
       id="clipPath174">
      <path
         d="m 392.005,448.538 57.554,0 0,-117.03 -57.554,0 0,117.03 z"
         id="path176"
         inkscape:connector-curvature="0" />
    </clipPath>
    <clipPath
       clipPathUnits="userSpaceOnUse"
       id="clipPath190">
      <path
         d="m 306.259,395.185 29.147,0 0,-59.266 -29.147,0 0,59.266 z"
         id="path192"
         inkscape:connector-curvature="0" />
    </clipPath>
    <clipPath
       clipPathUnits="userSpaceOnUse"
       id="clipPath206">
      <path
         d="m 46.5817,535.596 82.5363,0 0,-122.641 -82.5363,0 0,122.641 z"
         id="path208"
         inkscape:connector-curvature="0" />
    </clipPath>
    <clipPath
       clipPathUnits="userSpaceOnUse"
       id="clipPath222">
      <path
         d="m 19.6897,618.929 38.3612,0 0,-201.561 -38.3612,0 0,201.561 z"
         id="path224"
         inkscape:connector-curvature="0" />
    </clipPath>
    <clipPath
       clipPathUnits="userSpaceOnUse"
       id="clipPath238">
      <path
         d="m 442.167,383.066 39.149,0 0,-35.912 -39.149,0 0,35.912 z"
         id="path240"
         inkscape:connector-curvature="0" />
    </clipPath>
    <clipPath
       clipPathUnits="userSpaceOnUse"
       id="clipPath254">
      <path
         d="m 540.216,516.531 46.906,0 0,-96.031 -46.906,0 0,96.031 z"
         id="path256"
         inkscape:connector-curvature="0" />
    </clipPath>
    <clipPath
       clipPathUnits="userSpaceOnUse"
       id="clipPath278">
      <path
         d="m 173.08,469.868 32.906,0 0,-67.368 -32.906,0 0,67.368 z"
         id="path280"
         inkscape:connector-curvature="0" />
    </clipPath>
    <clipPath
       clipPathUnits="userSpaceOnUse"
       id="clipPath302">
      <path
         d="m 576.333,678.323 194.667,0 0,-285.822 -194.667,0 0,285.822 z"
         id="path304"
         inkscape:connector-curvature="0" />
    </clipPath>
  </defs>
  <sodipodi:namedview
     id="base"
     pagecolor="#ffffff"
     bordercolor="#666666"
     borderopacity="1.0"
     inkscape:pageopacity="0.0"
     inkscape:pageshadow="2"
     inkscape:zoom="0.98994949"
     inkscape:cx="330.45648"
     inkscape:cy="511.48589"
     inkscape:document-units="px"
     inkscape:current-layer="layer1"
     showgrid="false"
     inkscape:window-width="1360"
     inkscape:window-height="705"
     inkscape:window-x="-8"
     inkscape:window-y="-8"
     inkscape:window-maximized="1" />
  <metadata
     id="metadata7">
    <rdf:RDF>
      <cc:Work
         rdf:about="">
        <dc:format>image/svg+xml</dc:format>
        <dc:type
           rdf:resource="http://purl.org/dc/dcmitype/StillImage" />
        <dc:title></dc:title>
      </cc:Work>
    </rdf:RDF>
  </metadata>
  <g
     inkscape:label="Camada 1"
     inkscape:groupmode="layer"
     id="layer1">
    <path
       inkscape:connector-curvature="0"
       id="path1222-7"
       style="fill:#876853;fill-opacity:1;fill-rule:nonzero;stroke:none"
       d="m 737.29848,537.02087 c 0,0 -96.53584,-134.69541 -242.3494,-128.65488 -145.81334,6.04048 -273.12107,132.64294 -273.12107,132.64294 0,0 -57.43733,-76.28622 -172.466902,-98.09575 0,0 118.076802,104.94903 135.951312,165.00773 17.86897,60.04009 -97.457805,183.09665 -97.457805,183.09665 0,0 92.835225,-8.96101 156.482075,-130.638 0,0 99.05924,48.30907 224.28863,32.60604 -14.45318,15.9 -21.24739,31.22814 -3.18393,38.00595 59.58379,22.32393 68.98752,-18.98081 67.95514,-51.92068 67.56886,-20.64515 138.77852,-62.87075 203.90195,-142.05"
       inkscape:export-filename="C:\Users\AbnerAdmin\Pictures\fish-sprit\sprit6.png"
       inkscape:export-xdpi="90"
       inkscape:export-ydpi="90" />
  </g>
</svg>
